<?xml version="1.0" encoding="UTF-8"?><svg xmlns="http://www.w3.org/2000/svg" xmlns:xlink="http://www.w3.org/1999/xlink" height="499.9" preserveAspectRatio="xMidYMid meet" version="1.1" viewBox="-0.5 -0.5 478.5 499.9" width="478.5" zoomAndPan="magnify">
 <defs>
  <clipPath id="clip1">
   <path d="m0 0h478.07v499.49h-478.07z"/>
  </clipPath>
  <clipPath id="clip2">
   <path d="m35 18h443.07v481.49h-443.07z"/>
  </clipPath>
 </defs>
 <g id="surface1">
  <g clip-path="url(#clip1)" id="change1_1">
   <path d="m317.43 357.87c-11.18-5.32-23.66-7.95-36.04-7.44-19.51 0.83-38.57 9.51-52 23.67-6.53 6.87-11.71 14.91-18.48 21.54-3.59 3.52-7.8 6.66-12.39 8.72-1.7-2.34-3.5-4.62-5.38-6.85-2.09-2.48-4.28-4.9-6.55-7.21-5.21-5.31-10.89-10.16-16.95-14.47-2.35-13.55-1.96-27.94-2.1-41.81v-0.09c13.91-0.53 27.6-4.53 38.32-13.23 14.96-12.12 22.16-34.63 13.19-51.69-9.16-17.46-31.57-25.04-40.1-42.82-4.56-9.45-4.54-20.61-9.22-29.99-5.05-10.15-14.89-16.85-23.44-24.3-2.82-2.45-5.58-5.16-7.99-8.1 0.13-2.09 0.38-4.18 0.77-6.25 1.97-10.5 7.38-19.98 12.72-29.24 2.55-4.4 5.1-8.81 7.69-13.22 13.09-12.19 31.38-18.633 49.22-17.551 4.27 0.258 8.5 0.938 12.64 2.078 3.43 0.953 6.84 2.193 10.38 2.463 2.28 0.17 4.71-0.13 6.76-1.07 3.7 11.02 5.75 22.59 6 34.2 0.15 7.22-0.28 14.8 2.95 21.24 3.02 5.96 9.14 10.22 15.77 10.94 4.87 0.54 9.91-0.84 13.91-3.69 0.59 0.41 1.16 0.84 1.73 1.27 11.8 8.85 21.02 21.08 28.78 33.74 9.47 15.43 17.26 31.92 27.84 46.61 12.68 17.63 29.31 32.38 48.27 42.96-24.14 21.13-46.37 44.45-66.3 69.59zm160.52-92.34c-1-9.51-7.75-17.27-14.18-24.36-47.61-52.38-95.22-104.74-142.82-157.12-0.75-0.823-1.49-1.632-2.22-2.452-9.8-16.84-21.94-32.309-35.91-45.86-1.07-8.961-5.18-17.57-11.57-23.961-7.89-7.859-19.16-12.238-30.3-11.738-15.13 0.68756-28.49 9.6798-40.77 18.539-0.02 0.02-0.04 0.031-0.06 0.039-27.26 19.653-54 40.43-76.24 65.602-10.56 11.929-20.11 24.921-26.634 39.461-0.082 0.19-0.172 0.38-0.25 0.57l-0.16-0.07c-18.711-10.72-44.25-6.3-60.742 7.31-4.469 3.69-8.34 7.93-11.621 12.57-8.836 12.47-13.469 27.76-14.477 42.91-0.1015 1.55-0.1796 3.11-0.2108 4.66-2.961 7.18-5.9297 14.37-8.8907 21.56-0.69138 1.66-1.3593 3.61-0.46091 5.17 0.64061 1.12 1.9219 1.68 3.1523 2.1 2.9102 1 5.9571 1.55 9.0391 1.65 1.711 8.89 4.031 17.7 6.559 26.39 0.812 2.75 1.722 5.66 3.98 7.52 5.691 4.74 14.242-0.23 21.75-0.99 9.141-0.91 17.781 5.19 22.301 12.83 4.172 7.03 5.551 15.17 6.64 23.21-14.421 21.65-31.21 42.82-36.671 67.78-7.579 34.69 9.011 71.59 35.582 95.15 4.66 4.13 9.578 7.9 14.718 11.32 24.156 16.21 53.066 25.14 81.946 30.01 5.78 0.98 11.64 1.79 17.52 2.42 60.43 6.6 124.39-5 170.34-44.18 27.16-23.17 46.21-54.18 64.82-84.65 15.48-25.34 30.93-50.68 46.41-76.02 5.12-8.4 10.44-17.59 9.43-27.37" fill="#f68d98"/>
  </g>
  <g id="change2_1"><path d="m213.95 44.098c0.25-0.059 0.5-0.11 0.73-0.149-0.22 0.188-0.45 0.367-0.66 0.571-0.02-0.141-0.04-0.274-0.07-0.422" fill="#0f0e0c"/></g>
  <g clip-path="url(#clip2)" id="change3_1">
   <path d="m169.64 375.83c-2.35-13.55-1.96-27.94-2.1-41.81v-0.09c-0.47-42.4-7.25-84.74-20.04-125.17-4.62-14.65-10.12-29.82-9.2-44.96 0.13-2.09 0.38-4.18 0.77-6.25 1.97-10.5 7.38-19.98 12.72-29.24 2.55-4.4 5.1-8.81 7.69-13.22 10.84-18.422 22.38-36.66 36.27-52.531 5.66-6.461 11.71-12.532 18.27-18.039-0.02-0.141-0.04-0.274-0.07-0.422-1.63-9.692-6.56-18.86-13.77-25.52-0.02 0.02-0.04 0.031-0.06 0.039-27.26 19.653-54 40.43-76.24 65.602-10.56 11.929-20.11 24.921-26.634 39.461-0.082 0.19-0.172 0.38-0.25 0.57-9.43 21.38-11.953 45.33-10.383 68.67 0.043 0.71 0.102 1.4 0.153 2.1 0.398 5.22 1 10.41 1.738 15.58 1.699 11.77 4.199 23.43 7.039 35.02-3.406 16.22-12.008 30.95-21.688 45.45-14.421 21.65-31.21 42.82-36.671 67.78-7.579 34.69 9.011 71.59 35.582 95.15 4.66 4.13 9.578 7.9 14.718 11.32 40.496-12.15 76.406-39.35 99.106-75.02-5.21-5.31-10.89-10.16-16.95-14.47zm298.88-82.93c-15.48 25.34-30.93 50.68-46.41 76.02-18.61 30.47-37.66 61.48-64.82 84.65-45.95 39.18-109.91 50.78-170.34 44.18-11.47-28.88-10.79-62.43 1.62-90.91 1.36-3.18 2.9-6.29 4.57-9.33 1.88 2.23 3.68 4.51 5.38 6.85 4.59-2.06 8.8-5.2 12.39-8.72 6.77-6.63 11.95-14.67 18.48-21.54 13.43-14.16 32.49-22.84 52-23.67 12.38-0.51 24.86 2.12 36.04 7.44 19.93-25.14 42.16-48.46 66.3-69.59 8.86-7.76 17.98-15.24 27.36-22.39-28.21-16.95-49.16-44.47-66.48-72.74-12.18-19.92-23.11-40.72-35.57-60.44-3.52-5.6-7.18-11.11-11.02-16.49-0.2-0.27-0.38-0.54-0.59-0.81 4.84-12.03 12.86-22.754 22.95-30.902 0.19-0.172 0.37-0.309 0.57-0.461 47.6 52.383 95.21 104.74 142.82 157.12 6.43 7.09 13.18 14.85 14.18 24.36 1.01 9.78-4.31 18.97-9.43 27.37" fill="#778991"/>
  </g>
  <g id="change1_2"><path d="m88.504 210.6c-0.738-5.17-1.34-10.36-1.738-15.58-0.051-0.7-0.11-1.39-0.153-2.1-3 3.15-6.16 6.17-9.457 9.02-2.402 2.07-5.211 4.18-8.363 3.94-3.098-0.26-5.598-2.8-6.848-5.63-1.25-2.84-1.5-6-1.972-9.07-3.118-20.25-16.95-38.49-35.5-47.12-8.836 12.47-13.469 27.76-14.477 42.91-0.1015 1.55-0.1796 3.11-0.2108 4.66-0.25 10.21 0.8988 20.39 2.8398 30.48 1.711 8.89 4.031 17.7 6.559 26.39 0.812 2.75 1.722 5.66 3.98 7.52 5.691 4.74 14.242-0.23 21.75-0.99 9.141-0.91 17.781 5.19 22.301 12.83 4.172 7.03 5.551 15.17 6.64 23.21 9.68-14.5 18.282-29.23 21.688-45.45-2.84-11.59-5.34-23.25-7.039-35.02zm-1.02 254.72c24.156 16.21 53.066 25.14 81.946 30.01 5.78 0.98 11.64 1.79 17.52 2.42-11.47-28.88-10.79-62.43 1.62-90.91 1.36-3.18 2.9-6.29 4.57-9.33-2.09-2.48-4.28-4.9-6.55-7.21-22.7 35.67-58.61 62.87-99.106 75.02zm151.72-416.97c6.14 2.769 11.98 6.16 17.44 10.101-2.98-9.66-7.64-18.519-14.78-25.511 1.44-5.418 5.1-10.27 10-13.02 2.84-1.582 6.05-2.461 9.27-2.602 7.64 5.653 14.89 11.801 21.69 18.422-1.07-8.961-5.18-17.57-11.57-23.961-7.89-7.859-19.16-12.238-30.3-11.738-15.13 0.68756-28.49 9.6798-40.77 18.539 7.21 6.66 12.14 15.828 13.77 25.52 0.25-0.059 0.5-0.11 0.73-0.149 2.02-0.402 4.07-0.562 6.11-0.511 6.39 0.171 12.59 2.281 18.41 4.91zm69.84 84.362c-13.42 6.75-24.34 18.42-30.2 32.26-0.57-0.43-1.14-0.86-1.73-1.27-4 2.85-9.04 4.23-13.91 3.69-6.63-0.72-12.75-4.98-15.77-10.94-3.23-6.44-2.8-14.02-2.95-21.24-0.25-11.61-2.3-23.18-6-34.2-3.76-11.264-9.25-21.963-16.25-31.553-3.12-4.277-6.69-9.848-3.98-14.41 2.39-4.02 8.59-4.16 12.45-1.488 0.76 0.527 1.46 1.129 2.07 1.789 2.87 12.48 12.25 23.332 24.25 27.84 1.3 0.492 2.75 0.859 4.18 0.968 0.18 2.293 0.3 4.59 0.39 6.864 0.3 8.5 0.62 17.98 6.68 23.94 4.71 4.65 11.98 5.91 18.52 4.85 3.51-0.57 6.87-1.71 10.14-3.13 0.37-0.15 0.73-0.3 1.09-0.46 3.84 5.38 7.5 10.89 11.02 16.49" fill="#f68d98"/></g>
  <g id="change4_1"><path d="m9.7852 191.63c-2.961 7.18-5.9297 14.37-8.8907 21.56-0.69138 1.66-1.3593 3.61-0.46091 5.17 0.64061 1.12 1.9219 1.68 3.1523 2.1 2.9102 1 5.9571 1.55 9.0391 1.65-1.941-10.09-3.0898-20.27-2.8398-30.48zm311.16-107.58c-0.2 0.152-0.38 0.289-0.57 0.461-10.09 8.148-18.11 18.872-22.95 30.902 0.21 0.27 0.39 0.54 0.59 0.81-0.36 0.16-0.72 0.31-1.09 0.46-3.27 1.42-6.63 2.56-10.14 3.13-6.54 1.06-13.81-0.2-18.52-4.85-6.06-5.96-6.38-15.44-6.68-23.94-0.09-2.274-0.21-4.571-0.39-6.864-1.43-0.109-2.88-0.476-4.18-0.968-12-4.508-21.38-15.36-24.25-27.84-0.61-0.66-1.31-1.262-2.07-1.789-3.86-2.672-10.06-2.532-12.45 1.488-2.71 4.562 0.86 10.133 3.98 14.41 7 9.59 12.49 20.289 16.25 31.553-2.05 0.94-4.48 1.24-6.76 1.07-3.54-0.27-6.95-1.51-10.38-2.463-4.14-1.14-8.37-1.82-12.64-2.078-1.97-12.351-6.38-24.332-12.95-34.98 5.66-6.461 11.71-12.532 18.27-18.039 0.21-0.204 0.44-0.383 0.66-0.571 2.02-0.402 4.07-0.562 6.11-0.511 6.39 0.171 12.59 2.281 18.41 4.91 6.14 2.769 11.98 6.16 17.44 10.101-2.98-9.66-7.64-18.519-14.78-25.511 1.44-5.418 5.1-10.27 10-13.02 2.84-1.582 6.05-2.461 9.27-2.602 7.64 5.653 14.89 11.801 21.69 18.422 13.97 13.551 26.11 29.02 35.91 45.86 0.73 0.82 1.47 1.629 2.22 2.449" fill="#f1516a"/></g>
  <g id="change5_1"><path d="m256.48 60.855c0.87 3.422 1.81 6.778 2.22 10.297 0.39 3.453 0.16 6.918 0.44 10.371 0.07 0.907 1.55 0.692 1.75-0.031 1.93-6.68 0.43-14.941-2.61-21.074-0.36-0.723-2.03-0.457-1.8 0.437zm-209.96 160.48c-6.461 4.72-13.046 7.29-21.171 6.99-0.461-0.02-0.622 0.56-0.2 0.75 2.114 0.95 2.625 1.58 5.133 1.77 2.496 0.18 5.067-0.18 7.477-0.85 4.25-1.16 8.476-3.45 10.953-7.19 0.976-1.47-1.078-2.28-2.192-1.47zm-4.476-48.35c1.191 0.16 3.101-1.41 1.394-2.24-9.074-4.41-21.156-0.28-27.406 7.12-0.867 1.02 0.828 1.95 1.66 1.23 7.422-6.44 14.926-7.37 24.352-6.11zm-7.356 21.68c5.727-0.94 10.852-3.98 13.844-9 0.813-1.36-1.637-1.68-2.367-0.89-3.16 3.41-6.934 5.98-11.523 7.03-5.18 1.19-8.973-0.73-13.915-1.42-0.492-0.07-1 0.38-0.675 0.85 2.781 4.07 10.304 4.15 14.636 3.43zm62.145-70.48c-18.711-10.72-44.25-6.3-60.742 7.31-4.469 3.69-8.34 7.93-11.621 12.57 18.55 8.63 32.382 26.87 35.5 47.12 0.472 3.07 0.722 6.23 1.972 9.07 1.25 2.83 3.75 5.37 6.848 5.63 3.152 0.24 5.961-1.87 8.363-3.94 3.297-2.85 6.457-5.87 9.457-9.02-1.57-23.34 0.953-47.29 10.383-68.67zm111.86-26.641c-1.97-12.351-6.38-24.332-12.95-34.98-13.89 15.871-25.43 34.109-36.27 52.531 13.09-12.19 31.38-18.633 49.22-17.551zm-29.75 128.65c-4.56-9.45-4.54-20.61-9.22-29.99-5.05-10.15-14.89-16.85-23.44-24.3-2.82-2.45-5.58-5.16-7.99-8.1-0.92 15.14 4.58 30.31 9.2 44.96 12.79 40.43 19.57 82.77 20.04 125.17 13.91-0.53 27.6-4.53 38.32-13.23 14.96-12.12 22.16-34.63 13.19-51.69-9.16-17.46-31.57-25.04-40.1-42.82zm232.14 39.7c-9.38 7.15-18.5 14.63-27.36 22.39-18.96-10.58-35.59-25.33-48.27-42.96-10.58-14.69-18.37-31.18-27.84-46.61-7.76-12.66-16.98-24.89-28.78-33.74 5.86-13.84 16.78-25.51 30.2-32.26 12.46 19.72 23.39 40.52 35.57 60.44 17.32 28.27 38.27 55.79 66.48 72.74" fill="#2a3742"/></g>
 </g>
</svg>